<?xml version="1.0" encoding="UTF-8" standalone="no"?>
<!-- Created with Inkscape (http://www.inkscape.org/) -->

<svg
   xmlns:dc="http://purl.org/dc/elements/1.1/"
   xmlns:cc="http://creativecommons.org/ns#"
   xmlns:rdf="http://www.w3.org/1999/02/22-rdf-syntax-ns#"
   xmlns:svg="http://www.w3.org/2000/svg"
   xmlns="http://www.w3.org/2000/svg"
   xmlns:sodipodi="http://sodipodi.sourceforge.net/DTD/sodipodi-0.dtd"
   xmlns:inkscape="http://www.inkscape.org/namespaces/inkscape"
   width="744.09448819"
   height="1052.3622047"
   id="svg5618"
   version="1.1"
   inkscape:version="0.48.1 r9760"
   sodipodi:docname="boid_cohesion.svg">
  <defs
     id="defs5620">
    <marker
       inkscape:stockid="Arrow2SendE"
       orient="auto"
       refY="0"
       refX="0"
       id="Arrow2SendE"
       style="overflow:visible">
      <path
         inkscape:connector-curvature="0"
         id="path4904"
         style="font-size:12px;fill:#0000ff;fill-rule:evenodd;stroke:#0000ff;stroke-width:0.625;stroke-linejoin:round"
         d="M 8.7185878,4.0337352 -2.2072895,0.01601326 8.7185884,-4.0017078 c -1.7454984,2.3720609 -1.7354408,5.6174519 -6e-7,8.035443 z"
         transform="matrix(-0.3,0,0,-0.3,0.69,0)" />
    </marker>
    <marker
       inkscape:stockid="Arrow2SendE"
       orient="auto"
       refY="0"
       refX="0"
       id="marker5584"
       style="overflow:visible">
      <path
         inkscape:connector-curvature="0"
         id="path5586"
         style="font-size:12px;fill:#0000ff;fill-rule:evenodd;stroke:#0000ff;stroke-width:0.625;stroke-linejoin:round"
         d="M 8.7185878,4.0337352 -2.2072895,0.01601326 8.7185884,-4.0017078 c -1.7454984,2.3720609 -1.7354408,5.6174519 -6e-7,8.035443 z"
         transform="matrix(-0.3,0,0,-0.3,0.69,0)" />
    </marker>
    <marker
       inkscape:stockid="Arrow2SendE"
       orient="auto"
       refY="0"
       refX="0"
       id="marker5588"
       style="overflow:visible">
      <path
         inkscape:connector-curvature="0"
         id="path5590"
         style="font-size:12px;fill:#0000ff;fill-rule:evenodd;stroke:#0000ff;stroke-width:0.625;stroke-linejoin:round"
         d="M 8.7185878,4.0337352 -2.2072895,0.01601326 8.7185884,-4.0017078 c -1.7454984,2.3720609 -1.7354408,5.6174519 -6e-7,8.035443 z"
         transform="matrix(-0.3,0,0,-0.3,0.69,0)" />
    </marker>
    <marker
       inkscape:stockid="Arrow2Sendiz"
       orient="auto"
       refY="0"
       refX="0"
       id="Arrow2Sendiz"
       style="overflow:visible">
      <path
         inkscape:connector-curvature="0"
         id="path5329"
         style="font-size:12px;fill:#ff6600;fill-rule:evenodd;stroke:#ff6600;stroke-width:0.625;stroke-linejoin:round"
         d="M 8.7185878,4.0337352 -2.2072895,0.01601326 8.7185884,-4.0017078 c -1.7454984,2.3720609 -1.7354408,5.6174519 -6e-7,8.035443 z"
         transform="matrix(-0.3,0,0,-0.3,0.69,0)" />
    </marker>
    <marker
       inkscape:stockid="Arrow2SendE"
       orient="auto"
       refY="0"
       refX="0"
       id="marker5594"
       style="overflow:visible">
      <path
         inkscape:connector-curvature="0"
         id="path5596"
         style="font-size:12px;fill:#0000ff;fill-rule:evenodd;stroke:#0000ff;stroke-width:0.625;stroke-linejoin:round"
         d="M 8.7185878,4.0337352 -2.2072895,0.01601326 8.7185884,-4.0017078 c -1.7454984,2.3720609 -1.7354408,5.6174519 -6e-7,8.035443 z"
         transform="matrix(-0.3,0,0,-0.3,0.69,0)" />
    </marker>
  </defs>
  <sodipodi:namedview
     id="base"
     pagecolor="#ffffff"
     bordercolor="#666666"
     borderopacity="1.0"
     inkscape:pageopacity="0.0"
     inkscape:pageshadow="2"
     inkscape:zoom="2.8"
     inkscape:cx="417.63678"
     inkscape:cy="507.77244"
     inkscape:document-units="px"
     inkscape:current-layer="layer1"
     showgrid="false"
     inkscape:window-width="1920"
     inkscape:window-height="1149"
     inkscape:window-x="0"
     inkscape:window-y="25"
     inkscape:window-maximized="1" />
  <metadata
     id="metadata5623">
    <rdf:RDF>
      <cc:Work
         rdf:about="">
        <dc:format>image/svg+xml</dc:format>
        <dc:type
           rdf:resource="http://purl.org/dc/dcmitype/StillImage" />
        <dc:title />
      </cc:Work>
    </rdf:RDF>
  </metadata>
  <g
     inkscape:label="Layer 1"
     inkscape:groupmode="layer"
     id="layer1">
    <path
       inkscape:export-ydpi="90"
       inkscape:export-xdpi="90"
       inkscape:export-filename="/home/hell/Documents/projects/crowd/document/graphics/chapter - crowd simulation/bubble.png"
       transform="matrix(-0.9995436,-0.03020925,0.03020925,-0.9995436,534.56001,805.37917)"
       d="m 153.72333,243.07646 a 10.151907,10.151907 0 1 1 -20.30381,0 10.151907,10.151907 0 1 1 20.30381,0 z"
       sodipodi:ry="10.151907"
       sodipodi:rx="10.151907"
       sodipodi:cy="243.07646"
       sodipodi:cx="143.57143"
       id="path3821"
       style="fill:#ff9955;fill-opacity:1;stroke:#000000;stroke-opacity:0.45"
       sodipodi:type="arc" />
    <path
       inkscape:export-ydpi="90"
       inkscape:export-xdpi="90"
       inkscape:export-filename="/home/hell/Documents/projects/crowd/document/graphics/chapter - crowd simulation/bubble.png"
       transform="matrix(0.83577333,0.54907463,-0.54907463,0.83577333,399.80501,299.80026)"
       d="m 153.72333,243.07646 a 10.151907,10.151907 0 1 1 -20.30381,0 10.151907,10.151907 0 1 1 20.30381,0 z"
       sodipodi:ry="10.151907"
       sodipodi:rx="10.151907"
       sodipodi:cy="243.07646"
       sodipodi:cx="143.57143"
       id="path3821-3-72-4"
       style="fill:none;stroke:#000000;stroke-opacity:0.45000000000000001"
       sodipodi:type="arc" />
    <path
       inkscape:connector-curvature="0"
       id="path3006-7-63"
       d="m 386.33106,581.78852 -9.79638,-2.1003"
       style="fill:none;stroke:#b3b3b3;stroke-width:1px;stroke-linecap:butt;stroke-linejoin:miter;stroke-opacity:1" />
    <path
       style="fill:#ec8f52;fill-opacity:1;stroke:#333333;stroke-width:1px;stroke-linecap:butt;stroke-linejoin:miter;stroke-opacity:1"
       d="m 398.41719,557.93888 -4.458,-8.99419"
       id="path4853"
       inkscape:connector-curvature="0"
       inkscape:transform-center-x="2.3968407"
       inkscape:transform-center-y="-4.48954" />
    <path
       inkscape:export-ydpi="90"
       inkscape:export-xdpi="90"
       inkscape:export-filename="/home/hell/Documents/projects/crowd/document/graphics/chapter - crowd simulation/bubble.png"
       transform="matrix(0.83577333,0.54907463,-0.54907463,0.83577333,332.39978,249.37039)"
       d="m 153.72333,243.07646 a 10.151907,10.151907 0 1 1 -20.30381,0 10.151907,10.151907 0 1 1 20.30381,0 z"
       sodipodi:ry="10.151907"
       sodipodi:rx="10.151907"
       sodipodi:cy="243.07646"
       sodipodi:cx="143.57143"
       id="path3821-3-72-4-6"
       style="fill:none;stroke:#000000;stroke-opacity:0.45000000000000001"
       sodipodi:type="arc" />
    <path
       inkscape:connector-curvature="0"
       id="path3006-7-63-9"
       d="m 318.92583,531.35865 -9.79638,-2.1003"
       style="fill:none;stroke:#b3b3b3;stroke-width:1px;stroke-linecap:butt;stroke-linejoin:miter;stroke-opacity:1" />
    <path
       inkscape:export-ydpi="90"
       inkscape:export-xdpi="90"
       inkscape:export-filename="/home/hell/Documents/projects/crowd/document/graphics/chapter - crowd simulation/bubble.png"
       transform="matrix(0.35160137,0.93614981,-0.93614981,0.35160137,529.46121,301.73956)"
       d="m 153.72333,243.07646 a 10.151907,10.151907 0 1 1 -20.30381,0 10.151907,10.151907 0 1 1 20.30381,0 z"
       sodipodi:ry="10.151907"
       sodipodi:rx="10.151907"
       sodipodi:cy="243.07646"
       sodipodi:cx="143.57143"
       id="path3821-3-9-7"
       style="fill:none;stroke:#000000;stroke-opacity:0.45000000000000001"
       sodipodi:type="arc" />
    <path
       inkscape:connector-curvature="0"
       id="path3006-5-7"
       d="m 352.38513,521.60995 -6.67643,-7.47032"
       style="fill:none;stroke:#b3b3b3;stroke-width:1px;stroke-linecap:butt;stroke-linejoin:miter;stroke-opacity:1" />
    <path
       inkscape:export-ydpi="90"
       inkscape:export-xdpi="90"
       inkscape:export-filename="/home/hell/Documents/projects/crowd/document/graphics/chapter - crowd simulation/bubble.png"
       transform="matrix(0.35160137,0.93614981,-0.93614981,0.35160137,505.53265,340.66814)"
       d="m 153.72333,243.07646 a 10.151907,10.151907 0 1 1 -20.30381,0 10.151907,10.151907 0 1 1 20.30381,0 z"
       sodipodi:ry="10.151907"
       sodipodi:rx="10.151907"
       sodipodi:cy="243.07646"
       sodipodi:cx="143.57143"
       id="path3821-3-9-1"
       style="fill:none;stroke:#000000;stroke-opacity:0.45000000000000001"
       sodipodi:type="arc" />
    <path
       inkscape:connector-curvature="0"
       id="path3006-5-1"
       d="m 328.45657,560.53852 -6.67643,-7.47032"
       style="fill:none;stroke:#b3b3b3;stroke-width:1px;stroke-linecap:butt;stroke-linejoin:miter;stroke-opacity:1" />
    <path
       inkscape:export-ydpi="90"
       inkscape:export-xdpi="90"
       inkscape:export-filename="/home/hell/Documents/projects/crowd/document/graphics/chapter - crowd simulation/bubble.png"
       transform="matrix(0.83577333,0.54907463,-0.54907463,0.83577333,389.07336,251.4074)"
       d="m 153.72333,243.07646 a 10.151907,10.151907 0 1 1 -20.30381,0 10.151907,10.151907 0 1 1 20.30381,0 z"
       sodipodi:ry="10.151907"
       sodipodi:rx="10.151907"
       sodipodi:cy="243.07646"
       sodipodi:cx="143.57143"
       id="path3821-3-72-4-5"
       style="fill:none;stroke:#000000;stroke-opacity:0.45000000000000001"
       sodipodi:type="arc" />
    <path
       inkscape:connector-curvature="0"
       id="path3006-7-63-97"
       d="m 375.59941,533.39566 -9.79638,-2.1003"
       style="fill:none;stroke:#b3b3b3;stroke-width:1px;stroke-linecap:butt;stroke-linejoin:miter;stroke-opacity:1" />
    <path
       inkscape:export-ydpi="90"
       inkscape:export-xdpi="90"
       inkscape:export-filename="/home/hell/Documents/projects/crowd/document/graphics/chapter - crowd simulation/bubble.png"
       transform="matrix(0.17965526,0.98372964,-0.98372964,0.17965526,570.35616,398.84737)"
       d="m 153.72333,243.07646 a 10.151907,10.151907 0 1 1 -20.30381,0 10.151907,10.151907 0 1 1 20.30381,0 z"
       sodipodi:ry="10.151907"
       sodipodi:rx="10.151907"
       sodipodi:cy="243.07646"
       sodipodi:cx="143.57143"
       id="path3821-3-72-4-7"
       style="fill:none;stroke:#000000;stroke-opacity:0.45000000000000001"
       sodipodi:type="arc" />
    <path
       inkscape:connector-curvature="0"
       id="path3006-7-63-6"
       d="M 357.02798,583.75281 351.78525,575.215"
       style="fill:none;stroke:#b3b3b3;stroke-width:1px;stroke-linecap:butt;stroke-linejoin:miter;stroke-opacity:1" />
    <path
       style="fill:#ff6600;stroke:#ff0000;stroke-width:1px;stroke-linecap:butt;stroke-linejoin:miter;stroke-opacity:1;marker-end:url(#Arrow2Sendiz)"
       d="m 397.83383,557.80309 -22.46767,-2.05604"
       id="path4990"
       inkscape:connector-curvature="0"
       inkscape:transform-center-x="12.124779"
       inkscape:transform-center-y="-2.382212" />
    <path
       sodipodi:type="arc"
       style="opacity:0.6;fill:none;stroke:#ff9955;stroke-width:0.99999994;stroke-linejoin:bevel;stroke-miterlimit:4;stroke-opacity:1;stroke-dasharray:1.99999995, 1.99999995;stroke-dashoffset:0"
       id="path5037"
       sodipodi:cx="52.527931"
       sodipodi:cy="93.318748"
       sodipodi:rx="44.446712"
       sodipodi:ry="44.446712"
       d="m 96.974644,93.318748 a 44.446712,44.446712 0 1 1 -88.8934253,0 44.446712,44.446712 0 1 1 88.8934253,0 z"
       transform="matrix(1.3136499,0,0,1.3136499,329.39394,435.4883)" />
    <path
       sodipodi:type="arc"
       style="opacity:1;fill:#0000ff;fill-opacity:1;stroke:#0000ff;stroke-width:0.50000000000000000;stroke-linejoin:bevel;stroke-miterlimit:4;stroke-opacity:1;stroke-dasharray:none;stroke-dashoffset:0"
       id="path5691"
       sodipodi:cx="258.39285"
       sodipodi:cy="532.54077"
       sodipodi:rx="1.6940774"
       sodipodi:ry="1.6940774"
       d="m 260.08693,532.54077 a 1.6940774,1.6940774 0 1 1 -3.38815,0 1.6940774,1.6940774 0 1 1 3.38815,0 z"
       transform="translate(94.013371,-10.966824)" />
    <path
       sodipodi:type="arc"
       style="opacity:1;fill:#0000ff;fill-opacity:1;stroke:#0000ff;stroke-width:0.50000000000000000;stroke-linejoin:bevel;stroke-miterlimit:4;stroke-opacity:1;stroke-dasharray:none;stroke-dashoffset:0"
       id="path5691-3"
       sodipodi:cx="258.39285"
       sodipodi:cy="532.54077"
       sodipodi:rx="1.6940774"
       sodipodi:ry="1.6940774"
       d="m 260.08693,532.54077 a 1.6940774,1.6940774 0 1 1 -3.38815,0 1.6940774,1.6940774 0 1 1 3.38815,0 z"
       transform="translate(117.2385,0.84951019)" />
    <path
       sodipodi:type="arc"
       style="opacity:1;fill:#0000ff;fill-opacity:1;stroke:#0000ff;stroke-width:0.50000000000000000;stroke-linejoin:bevel;stroke-miterlimit:4;stroke-opacity:1;stroke-dasharray:none;stroke-dashoffset:0"
       id="path5691-1"
       sodipodi:cx="258.39285"
       sodipodi:cy="532.54077"
       sodipodi:rx="1.6940774"
       sodipodi:ry="1.6940774"
       d="m 260.08693,532.54077 a 1.6940774,1.6940774 0 1 1 -3.38815,0 1.6940774,1.6940774 0 1 1 3.38815,0 z"
       transform="translate(98.667064,51.165182)" />
    <path
       sodipodi:type="arc"
       style="opacity:1;fill:#0000ff;fill-opacity:1;stroke:#0000ff;stroke-width:0.50000000000000000;stroke-linejoin:bevel;stroke-miterlimit:4;stroke-opacity:1;stroke-dasharray:none;stroke-dashoffset:0"
       id="path5691-2"
       sodipodi:cx="258.39285"
       sodipodi:cy="532.54077"
       sodipodi:rx="1.6940774"
       sodipodi:ry="1.6940774"
       d="m 260.08693,532.54077 a 1.6940774,1.6940774 0 1 1 -3.38815,0 1.6940774,1.6940774 0 1 1 3.38815,0 z"
       transform="translate(127.82651,49.12693)" />
    <path
       style="fill:none;stroke:#0000ff;stroke-width:1px;stroke-linecap:butt;stroke-linejoin:miter;stroke-opacity:1"
       d="m 357.5,583.43361 8.21429,-28.21429 20.53571,26.60715"
       id="path5725"
       inkscape:connector-curvature="0" />
    <path
       style="fill:none;stroke:#0000ff;stroke-width:1px;stroke-linecap:butt;stroke-linejoin:miter;stroke-opacity:1"
       d="m 375.71429,533.96932 -10,20.35715 -13.03572,-32.14286"
       id="path5727"
       inkscape:connector-curvature="0" />
    <path
       sodipodi:type="arc"
       style="opacity:1;fill:#0000ff;fill-opacity:1;stroke:#0000ff;stroke-width:0.50000000000000000;stroke-linejoin:bevel;stroke-miterlimit:4;stroke-opacity:1;stroke-dasharray:none;stroke-dashoffset:0"
       id="path5691-9"
       sodipodi:cx="258.39285"
       sodipodi:cy="532.54077"
       sodipodi:rx="1.6940774"
       sodipodi:ry="1.6940774"
       d="m 260.08693,532.54077 a 1.6940774,1.6940774 0 1 1 -3.38815,0 1.6940774,1.6940774 0 1 1 3.38815,0 z"
       transform="translate(107.50001,21.964267)" />
  </g>
</svg>
