<?xml version="1.0" encoding="UTF-8" standalone="no"?>
<!-- Created with Inkscape (http://www.inkscape.org/) -->

<svg
   xmlns:dc="http://purl.org/dc/elements/1.1/"
   xmlns:cc="http://creativecommons.org/ns#"
   xmlns:rdf="http://www.w3.org/1999/02/22-rdf-syntax-ns#"
   xmlns:svg="http://www.w3.org/2000/svg"
   xmlns="http://www.w3.org/2000/svg"
   xmlns:sodipodi="http://sodipodi.sourceforge.net/DTD/sodipodi-0.dtd"
   xmlns:inkscape="http://www.inkscape.org/namespaces/inkscape"
   width="168.91785"
   height="226.08304"
   id="svg3037"
   version="1.1"
   inkscape:version="0.48.1 r9760"
   sodipodi:docname="connection_total.svg">
  <defs
     id="defs3039">
    <marker
       inkscape:stockid="EmptyDiamondMend"
       orient="auto"
       refY="0"
       refX="0"
       id="EmptyDiamondMend"
       style="overflow:visible">
      <path
         id="path4027"
         d="M 0,-7.0710768 -7.0710894,0 0,7.0710589 7.0710462,0 0,-7.0710768 z"
         style="fill:#ffffff;fill-rule:evenodd;stroke:#000000;stroke-width:1pt;marker-start:none"
         transform="matrix(0.4,0,0,0.4,-2.6,0)"
         inkscape:connector-curvature="0" />
    </marker>
    <marker
       inkscape:stockid="EmptyDiamondM"
       orient="auto"
       refY="0"
       refX="0"
       id="EmptyDiamondM"
       style="overflow:visible">
      <path
         id="path4009"
         d="M 0,-7.0710768 -7.0710894,0 0,7.0710589 7.0710462,0 0,-7.0710768 z"
         style="fill:#ffffff;fill-rule:evenodd;stroke:#000000;stroke-width:1pt;marker-start:none"
         transform="scale(0.4,0.4)"
         inkscape:connector-curvature="0" />
    </marker>
    <marker
       inkscape:stockid="DotS"
       orient="auto"
       refY="0"
       refX="0"
       id="DotS"
       style="overflow:visible">
      <path
         id="path3967"
         d="m -2.5,-1 c 0,2.76 -2.24,5 -5,5 -2.76,0 -5,-2.24 -5,-5 0,-2.76 2.24,-5 5,-5 2.76,0 5,2.24 5,5 z"
         style="fill-rule:evenodd;stroke:#000000;stroke-width:1pt;marker-start:none;marker-end:none"
         transform="matrix(0.2,0,0,0.2,1.48,0.2)"
         inkscape:connector-curvature="0" />
    </marker>
    <marker
       inkscape:stockid="DotM"
       orient="auto"
       refY="0"
       refX="0"
       id="DotM"
       style="overflow:visible">
      <path
         id="path3964"
         d="m -2.5,-1 c 0,2.76 -2.24,5 -5,5 -2.76,0 -5,-2.24 -5,-5 0,-2.76 2.24,-5 5,-5 2.76,0 5,2.24 5,5 z"
         style="fill-rule:evenodd;stroke:#000000;stroke-width:1pt;marker-start:none;marker-end:none"
         transform="matrix(0.4,0,0,0.4,2.96,0.4)"
         inkscape:connector-curvature="0" />
    </marker>
    <marker
       inkscape:stockid="Arrow2Send"
       orient="auto"
       refY="0"
       refX="0"
       id="Arrow2Send"
       style="overflow:visible">
      <path
         id="path3932"
         style="font-size:12px;fill-rule:evenodd;stroke-width:0.625;stroke-linejoin:round"
         d="M 8.7185878,4.0337352 -2.2072895,0.01601326 8.7185884,-4.0017078 c -1.7454984,2.3720609 -1.7354408,5.6174519 -6e-7,8.035443 z"
         transform="matrix(-0.3,0,0,-0.3,0.69,0)"
         inkscape:connector-curvature="0" />
    </marker>
    <marker
       inkscape:stockid="Arrow2Mend"
       orient="auto"
       refY="0"
       refX="0"
       id="Arrow2Mend"
       style="overflow:visible">
      <path
         id="path3926"
         style="font-size:12px;fill-rule:evenodd;stroke-width:0.625;stroke-linejoin:round"
         d="M 8.7185878,4.0337352 -2.2072895,0.01601326 8.7185884,-4.0017078 c -1.7454984,2.3720609 -1.7354408,5.6174519 -6e-7,8.035443 z"
         transform="scale(-0.6,-0.6)"
         inkscape:connector-curvature="0" />
    </marker>
  </defs>
  <sodipodi:namedview
     id="base"
     pagecolor="#ffffff"
     bordercolor="#666666"
     borderopacity="1.0"
     inkscape:pageopacity="0.0"
     inkscape:pageshadow="2"
     inkscape:zoom="3.959798"
     inkscape:cx="68.74146"
     inkscape:cy="128.59437"
     inkscape:document-units="px"
     inkscape:current-layer="layer2"
     showgrid="false"
     inkscape:window-width="1920"
     inkscape:window-height="1149"
     inkscape:window-x="0"
     inkscape:window-y="25"
     inkscape:window-maximized="1"
     fit-margin-top="0"
     fit-margin-left="20"
     fit-margin-right="20"
     fit-margin-bottom="0"
     inkscape:snap-global="true"
     inkscape:snap-object-midpoints="true"
     inkscape:snap-bbox="true"
     inkscape:snap-bbox-midpoints="true">
    <inkscape:grid
       type="xygrid"
       id="grid3134" />
  </sodipodi:namedview>
  <metadata
     id="metadata3042">
    <rdf:RDF>
      <cc:Work
         rdf:about="">
        <dc:format>image/svg+xml</dc:format>
        <dc:type
           rdf:resource="http://purl.org/dc/dcmitype/StillImage" />
        <dc:title></dc:title>
      </cc:Work>
    </rdf:RDF>
  </metadata>
  <g
     inkscape:label="Layer 1"
     inkscape:groupmode="layer"
     id="layer1"
     transform="translate(-329.38431,-437.65789)">
    <path
       style="fill:none;stroke:#b3b3b3;stroke-width:1px;stroke-linecap:butt;stroke-linejoin:miter;stroke-opacity:1;display:inline"
       d="m 349.88431,485.37585 c 25.81781,-1.2645 24.83216,101.1595 2.0203,124.24876"
       id="path6153"
       inkscape:connector-curvature="0"
       sodipodi:nodetypes="cc" />
    <text
       xml:space="preserve"
       style="font-size:10px;font-style:normal;font-weight:normal;line-height:125%;letter-spacing:0px;word-spacing:0px;fill:#b3b3b3;fill-opacity:1;stroke:none;display:inline;font-family:Sans"
       x="517.54211"
       y="-350.18332"
       id="text6178"
       sodipodi:linespacing="125%"
       transform="matrix(0,1,-1,0,0,0)"><tspan
         sodipodi:role="line"
         id="tspan6180"
         x="517.54211"
         y="-350.18332">Obstacle</tspan></text>
    <text
       xml:space="preserve"
       style="font-size:10px;font-style:normal;font-weight:normal;line-height:125%;letter-spacing:0px;word-spacing:0px;fill:#b3b3b3;fill-opacity:1;stroke:none;display:inline;font-family:Sans"
       x="430.82333"
       y="529.54822"
       id="text6178-9"
       sodipodi:linespacing="125%"><tspan
         sodipodi:role="line"
         id="tspan6180-4"
         x="430.82333"
         y="529.54822">Obstacle</tspan></text>
    <path
       style="fill:none;stroke:#b3b3b3;stroke-width:1px;stroke-linecap:butt;stroke-linejoin:miter;stroke-opacity:1"
       d="m 477.80215,494.50544 c -2.02217,-4.60517 -46.19251,0.56002 -52.52793,14.64721 -2.48034,32.2444 -0.4855,38.89746 3.283,44.19417 5.9631,8.38128 25.09061,3.84881 46.71955,32.82996"
       id="path3099"
       inkscape:connector-curvature="0"
       sodipodi:nodetypes="ccsc" />
    <path
       style="fill:none;stroke:#ffb380;stroke-width:1px;stroke-linecap:butt;stroke-linejoin:miter;stroke-opacity:1"
       d="M 45.7094,73.55 35.86041,45.77081 117.43024,45.51828"
       id="path3136"
       inkscape:connector-curvature="0"
       transform="translate(329.38431,437.65789)" />
    <path
       style="fill:none;stroke:#ffb380;stroke-width:1px;stroke-linecap:butt;stroke-linejoin:miter;stroke-opacity:1"
       d="M 35.86041,45.77081 86.36804,73.80255"
       id="path3138"
       inkscape:connector-curvature="0"
       transform="translate(329.38431,437.65789)" />
    <path
       style="fill:none;stroke:#ffb380;stroke-width:1px;stroke-linecap:butt;stroke-linejoin:miter;stroke-opacity:1"
       d="M 87.88327,112.69342 35.86041,45.77081 49.24493,112.69342"
       id="path3140"
       inkscape:connector-curvature="0"
       transform="translate(329.38431,437.65789)" />
    <path
       style="fill:none;stroke:#ffb380;stroke-width:1px;stroke-linecap:butt;stroke-linejoin:miter;stroke-opacity:1"
       d="M 117.43024,45.51828 45.7094,73.55"
       id="path3142"
       inkscape:connector-curvature="0"
       transform="translate(329.38431,437.65789)" />
    <path
       style="fill:none;stroke:#ffb380;stroke-width:1px;stroke-linecap:butt;stroke-linejoin:miter;stroke-opacity:1"
       d="M 49.24493,112.69342 117.43024,45.51828 86.36804,73.80255"
       id="path3144"
       inkscape:connector-curvature="0"
       transform="translate(329.38431,437.65789)" />
    <path
       style="fill:none;stroke:#ffb380;stroke-width:1px;stroke-linecap:butt;stroke-linejoin:miter;stroke-opacity:1"
       d="M 86.36804,73.80255 45.7094,73.55 l 3.53553,39.14342"
       id="path3146"
       inkscape:connector-curvature="0"
       transform="translate(329.38431,437.65789)" />
    <path
       style="fill:none;stroke:#ffb380;stroke-width:1px;stroke-linecap:butt;stroke-linejoin:miter;stroke-opacity:1"
       d="M 87.88327,112.69342 45.7094,73.55 l 79.29698,68.69038"
       id="path3148"
       inkscape:connector-curvature="0"
       transform="translate(329.38431,437.65789)" />
    <path
       style="fill:none;stroke:#ffb380;stroke-width:1px;stroke-linecap:butt;stroke-linejoin:miter;stroke-opacity:1"
       d="m 49.24493,112.69342 37.12311,-38.89087 1.51523,38.89087"
       id="path3150"
       inkscape:connector-curvature="0"
       transform="translate(329.38431,437.65789)" />
    <path
       style="fill:none;stroke:#ffb380;stroke-width:1px;stroke-linecap:butt;stroke-linejoin:miter;stroke-opacity:1"
       d="M 86.36804,73.80255 32.82996,174.8178"
       id="path3152"
       inkscape:connector-curvature="0"
       transform="translate(329.38431,437.65789)" />
    <path
       style="fill:none;stroke:#ffb380;stroke-width:1px;stroke-linecap:butt;stroke-linejoin:miter;stroke-opacity:1"
       d="m 87.88327,112.69342 -38.63834,0 75.76145,29.54696"
       id="path3154"
       inkscape:connector-curvature="0"
       transform="translate(329.38431,437.65789)" />
    <path
       style="fill:none;stroke:#ffb380;stroke-width:1px;stroke-linecap:butt;stroke-linejoin:miter;stroke-opacity:1"
       d="M 49.24493,112.69342 32.82996,174.8178"
       id="path3156"
       inkscape:connector-curvature="0"
       transform="translate(329.38431,437.65789)" />
    <path
       style="fill:none;stroke:#ffb380;stroke-width:1px;stroke-linecap:butt;stroke-linejoin:miter;stroke-opacity:1"
       d="m 32.82996,174.8178 55.05331,-62.12438 37.12311,29.54696 z"
       id="path3158"
       inkscape:connector-curvature="0"
       transform="translate(329.38431,437.65789)" />
  </g>
  <g
     inkscape:groupmode="layer"
     id="layer3"
     inkscape:label="path" />
  <g
     inkscape:groupmode="layer"
     id="layer2"
     inkscape:label="nodes">
    <path
       sodipodi:type="arc"
       style="fill:#ffb380;stroke:#ffb380;stroke-width:1.14199996;stroke-miterlimit:4;stroke-opacity:1;stroke-dasharray:none;display:inline"
       id="path3176"
       sodipodi:cx="110"
       sodipodi:cy="497.36218"
       sodipodi:rx="7.1428571"
       sodipodi:ry="7.1428571"
       d="m 117.14286,497.36218 a 7.1428571,7.1428571 0 1 1 -14.28572,0 7.1428571,7.1428571 0 1 1 14.28572,0 z"
       transform="matrix(0.623,0,0,0.623,-32.795862,-264.59091)" />
    <path
       sodipodi:type="arc"
       style="fill:#ffb380;stroke:#ffb380;stroke-width:1.14199996;stroke-miterlimit:4;stroke-opacity:1;stroke-dasharray:none;display:inline"
       id="path3176-7"
       sodipodi:cx="110"
       sodipodi:cy="497.36218"
       sodipodi:rx="7.1428571"
       sodipodi:ry="7.1428571"
       d="m 117.14286,497.36218 a 7.1428571,7.1428571 0 1 1 -14.28572,0 7.1428571,7.1428571 0 1 1 14.28572,0 z"
       transform="matrix(0.623,0,0,0.623,-22.946872,-236.81172)" />
    <path
       sodipodi:type="arc"
       style="fill:#ffb380;stroke:#ffb380;stroke-width:1.14199996;stroke-miterlimit:4;stroke-opacity:1;stroke-dasharray:none;display:inline"
       id="path3176-73"
       sodipodi:cx="110"
       sodipodi:cy="497.36218"
       sodipodi:rx="7.1428571"
       sodipodi:ry="7.1428571"
       d="m 117.14286,497.36218 a 7.1428571,7.1428571 0 1 1 -14.28572,0 7.1428571,7.1428571 0 1 1 14.28572,0 z"
       transform="matrix(0.623,0,0,0.623,48.773968,-264.84344)" />
    <path
       sodipodi:type="arc"
       style="fill:#ffb380;stroke:#ffb380;stroke-width:1.14199995999999993;stroke-miterlimit:4;stroke-opacity:1;stroke-dasharray:none;display:inline;fill-opacity:1"
       id="path3176-6"
       sodipodi:cx="110"
       sodipodi:cy="497.36218"
       sodipodi:rx="7.1428571"
       sodipodi:ry="7.1428571"
       d="m 117.14286,497.36218 a 7.1428571,7.1428571 0 1 1 -14.28572,0 7.1428571,7.1428571 0 1 1 14.28572,0 z"
       transform="matrix(0.623,0,0,0.623,-19.411342,-197.6683)" />
    <path
       sodipodi:type="arc"
       style="fill:#ffb380;stroke:#ffb380;stroke-width:1.14199996;stroke-miterlimit:4;stroke-opacity:1;stroke-dasharray:none;display:inline"
       id="path3176-8"
       sodipodi:cx="110"
       sodipodi:cy="497.36218"
       sodipodi:rx="7.1428571"
       sodipodi:ry="7.1428571"
       d="m 117.14286,497.36218 a 7.1428571,7.1428571 0 1 1 -14.28572,0 7.1428571,7.1428571 0 1 1 14.28572,0 z"
       transform="matrix(0.623,0,0,0.623,56.350108,-168.12134)" />
    <path
       sodipodi:type="arc"
       style="fill:#ffb380;stroke:#ffb380;stroke-width:1.14199996;stroke-miterlimit:4;stroke-opacity:1;stroke-dasharray:none;display:inline"
       id="path3176-85"
       sodipodi:cx="110"
       sodipodi:cy="497.36218"
       sodipodi:rx="7.1428571"
       sodipodi:ry="7.1428571"
       d="m 117.14286,497.36218 a 7.1428571,7.1428571 0 1 1 -14.28572,0 7.1428571,7.1428571 0 1 1 14.28572,0 z"
       transform="matrix(0.623,0,0,0.623,-35.826312,-135.54392)" />
    <path
       sodipodi:type="arc"
       style="fill:#ffb380;stroke:#ffb380;stroke-width:1.14199996;stroke-miterlimit:4;stroke-opacity:1;stroke-dasharray:none;display:inline"
       id="path3176-0"
       sodipodi:cx="110"
       sodipodi:cy="497.36218"
       sodipodi:rx="7.1428571"
       sodipodi:ry="7.1428571"
       d="m 117.14286,497.36218 a 7.1428571,7.1428571 0 1 1 -14.28572,0 7.1428571,7.1428571 0 1 1 14.28572,0 z"
       transform="matrix(0.623,0,0,0.623,17.711768,-236.55917)" />
    <path
       sodipodi:type="arc"
       style="fill:#ffb380;stroke:#ffb380;stroke-width:1.14199996;stroke-miterlimit:4;stroke-opacity:1;stroke-dasharray:none;display:inline"
       id="path3176-0-4"
       sodipodi:cx="110"
       sodipodi:cy="497.36218"
       sodipodi:rx="7.1428571"
       sodipodi:ry="7.1428571"
       d="m 117.14286,497.36218 a 7.1428571,7.1428571 0 1 1 -14.28572,0 7.1428571,7.1428571 0 1 1 14.28572,0 z"
       transform="matrix(0.623,0,0,0.623,19.226998,-197.6683)" />
    <path
       style="fill:none;stroke:#000000;stroke-width:1;stroke-linecap:butt;stroke-linejoin:miter;stroke-miterlimit:4;stroke-opacity:1;stroke-dasharray:4, 4;stroke-dashoffset:0;marker-start:url(#EmptyDiamondM);marker-end:url(#EmptyDiamondMend)"
       d="M 32.703688,174.31272 35.986685,169.00941 86.241768,73.29747 119.57681,43.245433"
       id="path3894"
       inkscape:connector-curvature="0"
       sodipodi:nodetypes="cccc" />
  </g>
</svg>
