<?xml version="1.0" encoding="UTF-8" standalone="no"?>
<!-- Created with Inkscape (http://www.inkscape.org/) -->

<svg
   xmlns:dc="http://purl.org/dc/elements/1.1/"
   xmlns:cc="http://creativecommons.org/ns#"
   xmlns:rdf="http://www.w3.org/1999/02/22-rdf-syntax-ns#"
   xmlns:svg="http://www.w3.org/2000/svg"
   xmlns="http://www.w3.org/2000/svg"
   xmlns:sodipodi="http://sodipodi.sourceforge.net/DTD/sodipodi-0.dtd"
   xmlns:inkscape="http://www.inkscape.org/namespaces/inkscape"
   width="168.91785"
   height="226.08304"
   id="svg3037"
   version="1.1"
   inkscape:version="0.48.1 r9760"
   sodipodi:docname="hierarchical.svg">
  <defs
     id="defs3039">
    <marker
       inkscape:stockid="EmptyDiamondMend"
       orient="auto"
       refY="0"
       refX="0"
       id="EmptyDiamondMend"
       style="overflow:visible">
      <path
         id="path4027"
         d="M 0,-7.0710768 -7.0710894,0 0,7.0710589 7.0710462,0 0,-7.0710768 z"
         style="fill:#ffffff;fill-rule:evenodd;stroke:#000000;stroke-width:1pt;marker-start:none"
         transform="matrix(0.4,0,0,0.4,-2.6,0)"
         inkscape:connector-curvature="0" />
    </marker>
    <marker
       inkscape:stockid="EmptyDiamondM"
       orient="auto"
       refY="0"
       refX="0"
       id="EmptyDiamondM"
       style="overflow:visible">
      <path
         id="path4009"
         d="M 0,-7.0710768 -7.0710894,0 0,7.0710589 7.0710462,0 0,-7.0710768 z"
         style="fill:#ffffff;fill-rule:evenodd;stroke:#000000;stroke-width:1pt;marker-start:none"
         transform="scale(0.4,0.4)"
         inkscape:connector-curvature="0" />
    </marker>
    <marker
       inkscape:stockid="DotS"
       orient="auto"
       refY="0"
       refX="0"
       id="DotS"
       style="overflow:visible">
      <path
         id="path3967"
         d="m -2.5,-1 c 0,2.76 -2.24,5 -5,5 -2.76,0 -5,-2.24 -5,-5 0,-2.76 2.24,-5 5,-5 2.76,0 5,2.24 5,5 z"
         style="fill-rule:evenodd;stroke:#000000;stroke-width:1pt;marker-start:none;marker-end:none"
         transform="matrix(0.2,0,0,0.2,1.48,0.2)"
         inkscape:connector-curvature="0" />
    </marker>
    <marker
       inkscape:stockid="DotM"
       orient="auto"
       refY="0"
       refX="0"
       id="DotM"
       style="overflow:visible">
      <path
         id="path3964"
         d="m -2.5,-1 c 0,2.76 -2.24,5 -5,5 -2.76,0 -5,-2.24 -5,-5 0,-2.76 2.24,-5 5,-5 2.76,0 5,2.24 5,5 z"
         style="fill-rule:evenodd;stroke:#000000;stroke-width:1pt;marker-start:none;marker-end:none"
         transform="matrix(0.4,0,0,0.4,2.96,0.4)"
         inkscape:connector-curvature="0" />
    </marker>
    <marker
       inkscape:stockid="Arrow2Send"
       orient="auto"
       refY="0"
       refX="0"
       id="Arrow2Send"
       style="overflow:visible">
      <path
         id="path3932"
         style="font-size:12px;fill-rule:evenodd;stroke-width:0.625;stroke-linejoin:round"
         d="M 8.7185878,4.0337352 -2.2072895,0.01601326 8.7185884,-4.0017078 c -1.7454984,2.3720609 -1.7354408,5.6174519 -6e-7,8.035443 z"
         transform="matrix(-0.3,0,0,-0.3,0.69,0)"
         inkscape:connector-curvature="0" />
    </marker>
    <marker
       inkscape:stockid="Arrow2Mend"
       orient="auto"
       refY="0"
       refX="0"
       id="Arrow2Mend"
       style="overflow:visible">
      <path
         id="path3926"
         style="font-size:12px;fill-rule:evenodd;stroke-width:0.625;stroke-linejoin:round"
         d="M 8.7185878,4.0337352 -2.2072895,0.01601326 8.7185884,-4.0017078 c -1.7454984,2.3720609 -1.7354408,5.6174519 -6e-7,8.035443 z"
         transform="scale(-0.6,-0.6)"
         inkscape:connector-curvature="0" />
    </marker>
    <marker
       inkscape:stockid="EmptyDiamondM"
       orient="auto"
       refY="0"
       refX="0"
       id="EmptyDiamondM-5"
       style="overflow:visible">
      <path
         id="path4009-9"
         d="M 0,-7.0710768 -7.0710894,0 0,7.0710589 7.0710462,0 0,-7.0710768 z"
         style="fill:#ffffff;fill-rule:evenodd;stroke:#000000;stroke-width:1pt;marker-start:none"
         transform="scale(0.4,0.4)"
         inkscape:connector-curvature="0" />
    </marker>
    <marker
       inkscape:stockid="EmptyDiamondM"
       orient="auto"
       refY="0"
       refX="0"
       id="EmptyDiamondM-9"
       style="overflow:visible">
      <path
         id="path4009-4"
         d="M 0,-7.0710768 -7.0710894,0 0,7.0710589 7.0710462,0 0,-7.0710768 z"
         style="fill:#ffffff;fill-rule:evenodd;stroke:#000000;stroke-width:1pt;marker-start:none"
         transform="scale(0.4,0.4)"
         inkscape:connector-curvature="0" />
    </marker>
    <marker
       inkscape:stockid="EmptyDiamondM"
       orient="auto"
       refY="0"
       refX="0"
       id="EmptyDiamondM-3"
       style="overflow:visible">
      <path
         id="path4009-3"
         d="M 0,-7.0710768 -7.0710894,0 0,7.0710589 7.0710462,0 0,-7.0710768 z"
         style="fill:#ffffff;fill-rule:evenodd;stroke:#000000;stroke-width:1pt;marker-start:none"
         transform="scale(0.4,0.4)"
         inkscape:connector-curvature="0" />
    </marker>
  </defs>
  <sodipodi:namedview
     id="base"
     pagecolor="#ffffff"
     bordercolor="#666666"
     borderopacity="1.0"
     inkscape:pageopacity="0.0"
     inkscape:pageshadow="2"
     inkscape:zoom="3.959798"
     inkscape:cx="100.68753"
     inkscape:cy="98.794872"
     inkscape:document-units="px"
     inkscape:current-layer="layer2"
     showgrid="false"
     inkscape:window-width="1920"
     inkscape:window-height="1149"
     inkscape:window-x="0"
     inkscape:window-y="25"
     inkscape:window-maximized="1"
     fit-margin-top="0"
     fit-margin-left="20"
     fit-margin-right="20"
     fit-margin-bottom="0"
     inkscape:snap-global="true"
     inkscape:snap-object-midpoints="true"
     inkscape:snap-bbox="true"
     inkscape:snap-bbox-midpoints="true"
     showguides="true"
     inkscape:guide-bbox="true">
    <inkscape:grid
       type="xygrid"
       id="grid3134" />
  </sodipodi:namedview>
  <metadata
     id="metadata3042">
    <rdf:RDF>
      <cc:Work
         rdf:about="">
        <dc:format>image/svg+xml</dc:format>
        <dc:type
           rdf:resource="http://purl.org/dc/dcmitype/StillImage" />
        <dc:title></dc:title>
      </cc:Work>
    </rdf:RDF>
  </metadata>
  <g
     inkscape:label="Layer 1"
     inkscape:groupmode="layer"
     id="layer1"
     transform="translate(-329.38431,-437.65789)">
    <path
       style="fill:none;stroke:#ffb380;stroke-width:1px;stroke-linecap:butt;stroke-linejoin:miter;stroke-opacity:1"
       d="M 86.36804,73.80255 45.7094,73.55 l 3.53553,39.14342"
       id="path3146"
       inkscape:connector-curvature="0"
       transform="translate(329.38431,437.65789)" />
    <path
       style="fill:none;stroke:#ffb380;stroke-width:1px;stroke-linecap:butt;stroke-linejoin:miter;stroke-opacity:1"
       d="m 87.88327,112.69342 -38.63834,0 63.00827,38.13325"
       id="path3154"
       inkscape:connector-curvature="0"
       transform="translate(329.38431,437.65789)"
       sodipodi:nodetypes="ccc" />
    <path
       style="fill:none;stroke:#ffb380;stroke-width:1px;stroke-linecap:butt;stroke-linejoin:miter;stroke-opacity:1"
       d="M 49.24493,112.69342 32.82996,174.8178"
       id="path3156"
       inkscape:connector-curvature="0"
       transform="translate(329.38431,437.65789)" />
    <path
       style="fill:none;stroke:#ffb380;stroke-width:1px;stroke-linecap:butt;stroke-linejoin:miter;stroke-opacity:1"
       d="m 32.82996,174.8178 55.05331,-62.12438 24.36993,38.13325 z"
       id="path3158"
       inkscape:connector-curvature="0"
       transform="translate(329.38431,437.65789)"
       sodipodi:nodetypes="cccc" />
    <path
       style="fill:none;stroke:#ffb380;stroke-width:1px;stroke-linecap:butt;stroke-linejoin:miter;stroke-opacity:1"
       d="m 35.734138,45.26573 9.84899,27.77919 31.195969,-35.74165 9.462671,35.9942 z"
       id="path3245"
       inkscape:connector-curvature="0"
       transform="translate(329.38431,437.65789)"
       sodipodi:nodetypes="ccccc" />
    <path
       style="fill:none;stroke:#ffb380;stroke-width:1px;stroke-linecap:butt;stroke-linejoin:miter;stroke-opacity:1"
       d="M 35.734138,45.26573 76.779097,37.30327"
       id="path3247"
       inkscape:connector-curvature="0"
       transform="translate(329.38431,437.65789)"
       sodipodi:nodetypes="cc" />
    <path
       style="fill:none;stroke:#ffb380;stroke-width:1px;stroke-linecap:butt;stroke-linejoin:miter;stroke-opacity:1"
       d="m 45.583128,73.04492 42.17387,39.14342 -1.51523,-38.89087 -37.12311,38.89087"
       id="path3249"
       inkscape:connector-curvature="0"
       transform="translate(329.38431,437.65789)" />
  </g>
  <g
     inkscape:groupmode="layer"
     id="layer3"
     inkscape:label="path" />
  <g
     inkscape:groupmode="layer"
     id="layer2"
     inkscape:label="nodes">
    <path
       style="fill:none;stroke:#cccccc;stroke-width:1;stroke-linecap:butt;stroke-linejoin:miter;stroke-miterlimit:4;stroke-opacity:1;stroke-dasharray:12, 12;stroke-dashoffset:0"
       d="m 120.73353,26.386289 0,159.856641"
       id="path4819"
       inkscape:connector-curvature="0" />
    <path
       sodipodi:type="arc"
       style="fill:#ffb380;stroke:#ffb380;stroke-width:1.14199996;stroke-miterlimit:4;stroke-opacity:1;stroke-dasharray:none;display:inline"
       id="path3176"
       sodipodi:cx="110"
       sodipodi:cy="497.36218"
       sodipodi:rx="7.1428571"
       sodipodi:ry="7.1428571"
       d="m 117.14286,497.36218 a 7.1428571,7.1428571 0 1 1 -14.28572,0 7.1428571,7.1428571 0 1 1 14.28572,0 z"
       transform="matrix(0.623,0,0,0.623,-32.795862,-264.59091)" />
    <path
       sodipodi:type="arc"
       style="fill:#ffb380;stroke:#ffb380;stroke-width:1.14199996;stroke-miterlimit:4;stroke-opacity:1;stroke-dasharray:none;display:inline"
       id="path3176-7"
       sodipodi:cx="110"
       sodipodi:cy="497.36218"
       sodipodi:rx="7.1428571"
       sodipodi:ry="7.1428571"
       d="m 117.14286,497.36218 a 7.1428571,7.1428571 0 1 1 -14.28572,0 7.1428571,7.1428571 0 1 1 14.28572,0 z"
       transform="matrix(0.623,0,0,0.623,-22.946872,-236.81172)" />
    <path
       sodipodi:type="arc"
       style="fill:#ffb380;stroke:#ffb380;stroke-width:1.14199995999999993;stroke-miterlimit:4;stroke-opacity:1;stroke-dasharray:none;display:inline;fill-opacity:1"
       id="path3176-6"
       sodipodi:cx="110"
       sodipodi:cy="497.36218"
       sodipodi:rx="7.1428571"
       sodipodi:ry="7.1428571"
       d="m 117.14286,497.36218 a 7.1428571,7.1428571 0 1 1 -14.28572,0 7.1428571,7.1428571 0 1 1 14.28572,0 z"
       transform="matrix(0.623,0,0,0.623,-19.411342,-197.6683)" />
    <path
       sodipodi:type="arc"
       style="fill:#ffb380;stroke:#ffb380;stroke-width:1.14199996;stroke-miterlimit:4;stroke-opacity:1;stroke-dasharray:none;display:inline"
       id="path3176-8"
       sodipodi:cx="110"
       sodipodi:cy="497.36218"
       sodipodi:rx="7.1428571"
       sodipodi:ry="7.1428571"
       d="m 117.14286,497.36218 a 7.1428571,7.1428571 0 1 1 -14.28572,0 7.1428571,7.1428571 0 1 1 14.28572,0 z"
       transform="matrix(0.623,0,0,0.623,43.723201,-159.02997)" />
    <path
       sodipodi:type="arc"
       style="fill:#ffb380;stroke:#ffb380;stroke-width:1.14199996;stroke-miterlimit:4;stroke-opacity:1;stroke-dasharray:none;display:inline"
       id="path3176-85"
       sodipodi:cx="110"
       sodipodi:cy="497.36218"
       sodipodi:rx="7.1428571"
       sodipodi:ry="7.1428571"
       d="m 117.14286,497.36218 a 7.1428571,7.1428571 0 1 1 -14.28572,0 7.1428571,7.1428571 0 1 1 14.28572,0 z"
       transform="matrix(0.623,0,0,0.623,-35.826312,-135.54392)" />
    <path
       sodipodi:type="arc"
       style="fill:#ffb380;stroke:#ffb380;stroke-width:1.14199996;stroke-miterlimit:4;stroke-opacity:1;stroke-dasharray:none;display:inline"
       id="path3176-0"
       sodipodi:cx="110"
       sodipodi:cy="497.36218"
       sodipodi:rx="7.1428571"
       sodipodi:ry="7.1428571"
       d="m 117.14286,497.36218 a 7.1428571,7.1428571 0 1 1 -14.28572,0 7.1428571,7.1428571 0 1 1 14.28572,0 z"
       transform="matrix(0.623,0,0,0.623,17.711768,-236.55917)" />
    <path
       sodipodi:type="arc"
       style="fill:#ffb380;stroke:#ffb380;stroke-width:1.14199996;stroke-miterlimit:4;stroke-opacity:1;stroke-dasharray:none;display:inline"
       id="path3176-0-4"
       sodipodi:cx="110"
       sodipodi:cy="497.36218"
       sodipodi:rx="7.1428571"
       sodipodi:ry="7.1428571"
       d="m 117.14286,497.36218 a 7.1428571,7.1428571 0 1 1 -14.28572,0 7.1428571,7.1428571 0 1 1 14.28572,0 z"
       transform="matrix(0.623,0,0,0.623,19.226998,-197.6683)" />
    <path
       style="fill:none;stroke:#000000;stroke-width:1;stroke-linecap:butt;stroke-linejoin:miter;stroke-miterlimit:4;stroke-opacity:1;stroke-dasharray:4, 4;stroke-dashoffset:0;marker-start:url(#EmptyDiamondM);marker-end:none"
       d="M 46.088202,26.072831 35.734138,45.26573 58.967648,57.57321"
       id="path3894"
       inkscape:connector-curvature="0"
       sodipodi:nodetypes="ccc" />
    <path
       style="fill:#ff8080;stroke:#0000ff;stroke-width:1;stroke-linecap:butt;stroke-linejoin:miter;stroke-miterlimit:4;stroke-opacity:1;stroke-dasharray:1, 3;stroke-dashoffset:0"
       d="m 58.967648,57.57321 102.000002,0"
       id="path3270"
       inkscape:connector-curvature="0"
       sodipodi:nodetypes="cc" />
    <path
       style="fill:#ff8080;stroke:#0000ff;stroke-width:1;stroke-linecap:butt;stroke-linejoin:miter;stroke-miterlimit:4;stroke-opacity:1;stroke-dasharray:1, 3;stroke-dashoffset:0"
       d="m 74.246212,127.59317 101.999998,0"
       id="path3270-1"
       inkscape:connector-curvature="0"
       sodipodi:nodetypes="cc" />
    <path
       sodipodi:type="arc"
       style="fill:#ffb380;stroke:#ffb380;stroke-width:1.14199996;stroke-miterlimit:4;stroke-opacity:1;stroke-dasharray:none;display:inline"
       id="path3176-73-9"
       sodipodi:cx="110"
       sodipodi:cy="497.36218"
       sodipodi:rx="7.1428571"
       sodipodi:ry="7.1428571"
       d="m 117.14286,497.36218 a 7.1428571,7.1428571 0 1 1 -14.28572,0 7.1428571,7.1428571 0 1 1 14.28572,0 z"
       transform="matrix(0.623,0,0,0.623,8.2490969,-272.55337)" />
    <path
       sodipodi:type="arc"
       style="fill:#ffb380;stroke:#ffb380;stroke-width:1.14199996;stroke-miterlimit:4;stroke-opacity:1;stroke-dasharray:none;display:inline"
       id="path3176-73-9-6"
       sodipodi:cx="110"
       sodipodi:cy="497.36218"
       sodipodi:rx="7.1428571"
       sodipodi:ry="7.1428571"
       d="m 117.14286,497.36218 a 7.1428571,7.1428571 0 1 1 -14.28572,0 7.1428571,7.1428571 0 1 1 14.28572,0 z"
       transform="matrix(0.623,0,0,0.623,-9.5623521,-252.28343)" />
    <path
       sodipodi:type="arc"
       style="fill:#ffb380;stroke:#ffb380;stroke-width:1.14199996;stroke-miterlimit:4;stroke-opacity:1;stroke-dasharray:none;display:inline"
       id="path3176-73-9-5"
       sodipodi:cx="110"
       sodipodi:cy="497.36218"
       sodipodi:rx="7.1428571"
       sodipodi:ry="7.1428571"
       d="m 117.14286,497.36218 a 7.1428571,7.1428571 0 1 1 -14.28572,0 7.1428571,7.1428571 0 1 1 14.28572,0 z"
       transform="matrix(0.623,0,0,0.623,-1.3548562,-216.60867)" />
    <path
       sodipodi:type="arc"
       style="fill:#ffb380;stroke:#ffb380;stroke-width:1.14199996;stroke-miterlimit:4;stroke-opacity:1;stroke-dasharray:none;display:inline"
       id="path3176-73-9-9"
       sodipodi:cx="110"
       sodipodi:cy="497.36218"
       sodipodi:rx="7.1428571"
       sodipodi:ry="7.1428571"
       d="m 117.14286,497.36218 a 7.1428571,7.1428571 0 1 1 -14.28572,0 7.1428571,7.1428571 0 1 1 14.28572,0 z"
       transform="matrix(0.623,0,0,0.623,5.7162116,-182.26347)" />
    <path
       style="fill:none;stroke:#ffb380;stroke-width:1px;stroke-linecap:butt;stroke-linejoin:miter;stroke-opacity:1"
       d="m 160.96765,57.57321 c 5.67886,23.214218 10.46046,46.61774 15.27856,70.01996"
       id="path4551"
       inkscape:connector-curvature="0"
       sodipodi:nodetypes="cc" />
    <path
       sodipodi:type="arc"
       style="fill:#ffb380;stroke:#ffb380;stroke-width:1.14199996;stroke-miterlimit:4;stroke-opacity:1;stroke-dasharray:none;display:inline"
       id="path3176-73-9-6-9"
       sodipodi:cx="110"
       sodipodi:cy="497.36218"
       sodipodi:rx="7.1428571"
       sodipodi:ry="7.1428571"
       d="m 117.14286,497.36218 a 7.1428571,7.1428571 0 1 1 -14.28572,0 7.1428571,7.1428571 0 1 1 14.28572,0 z"
       transform="matrix(0.623,0,0,0.623,92.437648,-252.28343)" />
    <path
       sodipodi:type="arc"
       style="fill:#ffb380;stroke:#ffb380;stroke-width:1.14199996;stroke-miterlimit:4;stroke-opacity:1;stroke-dasharray:none;display:inline"
       id="path3176-73-9-9-7"
       sodipodi:cx="110"
       sodipodi:cy="497.36218"
       sodipodi:rx="7.1428571"
       sodipodi:ry="7.1428571"
       d="m 117.14286,497.36218 a 7.1428571,7.1428571 0 1 1 -14.28572,0 7.1428571,7.1428571 0 1 1 14.28572,0 z"
       transform="matrix(0.623,0,0,0.623,107.71621,-182.26347)" />
    <path
       style="fill:none;stroke:#ffb380;stroke-width:1px;stroke-linecap:butt;stroke-linejoin:miter;stroke-opacity:1"
       d="m 58.967648,57.57321 8.207496,35.67476 7.071068,34.3452"
       id="path4582"
       inkscape:connector-curvature="0" />
    <path
       style="fill:none;stroke:#000000;stroke-width:1;stroke-linecap:butt;stroke-linejoin:miter;stroke-miterlimit:4;stroke-opacity:1;stroke-dasharray:4, 4;stroke-dashoffset:0;marker-start:url(#EmptyDiamondM);marker-end:none"
       d="M 45.709402,198.82559 32.703688,174.31272 74.246212,127.59317"
       id="path3894-4"
       inkscape:connector-curvature="0"
       sodipodi:nodetypes="ccc" />
    <path
       style="fill:none;stroke:#000000;stroke-width:1;stroke-linecap:butt;stroke-linejoin:miter;stroke-miterlimit:4;stroke-opacity:1;stroke-dasharray:4, 4;stroke-dashoffset:0;marker-start:none;marker-end:none"
       d="m 160.96765,57.57321 c 2.88832,11.806943 5.09232,23.130176 7.63928,35.00998 2.46074,11.47767 5.2717,23.51032 7.63928,35.00998"
       id="path3894-6"
       inkscape:connector-curvature="0"
       sodipodi:nodetypes="csc" />
  </g>
</svg>
