<?xml version="1.0" encoding="UTF-8" standalone="no"?>
<!-- Created with Inkscape (http://www.inkscape.org/) -->

<svg
   xmlns:dc="http://purl.org/dc/elements/1.1/"
   xmlns:cc="http://creativecommons.org/ns#"
   xmlns:rdf="http://www.w3.org/1999/02/22-rdf-syntax-ns#"
   xmlns:svg="http://www.w3.org/2000/svg"
   xmlns="http://www.w3.org/2000/svg"
   xmlns:sodipodi="http://sodipodi.sourceforge.net/DTD/sodipodi-0.dtd"
   xmlns:inkscape="http://www.inkscape.org/namespaces/inkscape"
   width="112.908"
   height="125.26037"
   id="svg3168"
   version="1.1"
   inkscape:version="0.48.1 r9760"
   sodipodi:docname="size_grid_radius_edge.svg">
  <defs
     id="defs3170">
    <marker
       style="overflow:visible"
       id="DistanceEnd"
       refX="0"
       refY="0"
       orient="auto"
       inkscape:stockid="DistanceEnd">
      <g
         id="g4126">
        <path
           style="fill:none;stroke:#ffffff;stroke-width:1.14999998;stroke-linecap:square"
           d="M 0,0 -2,0"
           id="path2316"
           inkscape:connector-curvature="0" />
        <path
           style="fill:#000000;fill-rule:evenodd;stroke:none"
           d="M 0,0 -13,4 -9,0 -13,-4 0,0 z"
           id="path2312"
           inkscape:connector-curvature="0" />
        <path
           style="fill:none;stroke:#000000;stroke-width:1;stroke-linecap:square"
           d="M 0,-4 0,40"
           id="path2314"
           inkscape:connector-curvature="0" />
      </g>
    </marker>
    <marker
       style="overflow:visible"
       id="DistanceStart"
       refX="0"
       refY="0"
       orient="auto"
       inkscape:stockid="DistanceStart">
      <g
         id="g2300">
        <path
           style="fill:none;stroke:#ffffff;stroke-width:1.14999998;stroke-linecap:square"
           d="M 0,0 2,0"
           id="path2306"
           inkscape:connector-curvature="0" />
        <path
           style="fill:#000000;fill-rule:evenodd;stroke:none"
           d="M 0,0 13,4 9,0 13,-4 0,0 z"
           id="path2302"
           inkscape:connector-curvature="0" />
        <path
           style="fill:none;stroke:#000000;stroke-width:1;stroke-linecap:square"
           d="M 0,-4 0,40"
           id="path2304"
           inkscape:connector-curvature="0" />
      </g>
    </marker>
    <marker
       inkscape:stockid="Arrow1Mstart"
       orient="auto"
       refY="0"
       refX="0"
       id="Arrow1Mstart"
       style="overflow:visible">
      <path
         id="path4076"
         d="M 0,0 5,-5 -12.5,0 5,5 0,0 z"
         style="fill-rule:evenodd;stroke:#000000;stroke-width:1pt;marker-start:none"
         transform="matrix(0.4,0,0,0.4,4,0)"
         inkscape:connector-curvature="0" />
    </marker>
    <marker
       inkscape:stockid="Arrow1Mend"
       orient="auto"
       refY="0"
       refX="0"
       id="Arrow1Mend"
       style="overflow:visible">
      <path
         id="path4079"
         d="M 0,0 5,-5 -12.5,0 5,5 0,0 z"
         style="fill-rule:evenodd;stroke:#000000;stroke-width:1pt;marker-start:none"
         transform="matrix(-0.4,0,0,-0.4,-4,0)"
         inkscape:connector-curvature="0" />
    </marker>
    <marker
       inkscape:stockid="Arrow1Lend"
       orient="auto"
       refY="0"
       refX="0"
       id="Arrow1Lend"
       style="overflow:visible">
      <path
         id="path4073"
         d="M 0,0 5,-5 -12.5,0 5,5 0,0 z"
         style="fill-rule:evenodd;stroke:#000000;stroke-width:1pt;marker-start:none"
         transform="matrix(-0.8,0,0,-0.8,-10,0)"
         inkscape:connector-curvature="0" />
    </marker>
  </defs>
  <sodipodi:namedview
     id="base"
     pagecolor="#ffffff"
     bordercolor="#666666"
     borderopacity="1.0"
     inkscape:pageopacity="0.0"
     inkscape:pageshadow="2"
     inkscape:zoom="3.959798"
     inkscape:cx="60.030729"
     inkscape:cy="87.810041"
     inkscape:document-units="px"
     inkscape:current-layer="layer1"
     showgrid="false"
     inkscape:snap-global="true"
     inkscape:snap-bbox="true"
     inkscape:snap-bbox-midpoints="true"
     inkscape:snap-nodes="true"
     inkscape:snap-object-midpoints="true"
     inkscape:window-width="1920"
     inkscape:window-height="1149"
     inkscape:window-x="0"
     inkscape:window-y="25"
     inkscape:window-maximized="1"
     fit-margin-top="0"
     fit-margin-left="30"
     fit-margin-right="30"
     fit-margin-bottom="0">
    <inkscape:grid
       type="xygrid"
       id="grid3196"
       empspacing="5"
       visible="true"
       enabled="true"
       snapvisiblegridlinesonly="true" />
  </sodipodi:namedview>
  <metadata
     id="metadata3173">
    <rdf:RDF>
      <cc:Work
         rdf:about="">
        <dc:format>image/svg+xml</dc:format>
        <dc:type
           rdf:resource="http://purl.org/dc/dcmitype/StillImage" />
        <dc:title></dc:title>
      </cc:Work>
    </rdf:RDF>
  </metadata>
  <g
     inkscape:label="Layer 1"
     inkscape:groupmode="layer"
     id="layer1"
     style="display:inline"
     transform="translate(-85.540063,-485.16491)">
    <path
       sodipodi:type="arc"
       style="fill:#ffb380;stroke:#ffb380;stroke-width:1.14199996;stroke-miterlimit:4;stroke-opacity:1;stroke-dasharray:none;display:inline"
       id="path3176"
       sodipodi:cx="110"
       sodipodi:cy="497.36218"
       sodipodi:rx="7.1428571"
       sodipodi:ry="7.1428571"
       d="m 117.14286,497.36218 c 0,3.94489 -3.19797,7.14286 -7.14286,7.14286 -3.94489,0 -7.14286,-3.19797 -7.14286,-7.14286 0,-3.94489 3.19797,-7.14285 7.14286,-7.14285 3.94489,0 7.14286,3.19796 7.14286,7.14285 z"
       transform="matrix(0.623,0,0,0.623,67.072775,183.76823)" />
    <path
       sodipodi:type="arc"
       style="fill:#ffb380;stroke:#ffb380;stroke-width:1.14199996;stroke-miterlimit:4;stroke-opacity:0.91538457;stroke-dasharray:none;display:inline"
       id="path3176-9"
       sodipodi:cx="110"
       sodipodi:cy="497.36218"
       sodipodi:rx="7.1428571"
       sodipodi:ry="7.1428571"
       d="m 117.14286,497.36218 c 0,3.94489 -3.19797,7.14286 -7.14286,7.14286 -3.94489,0 -7.14286,-3.19797 -7.14286,-7.14286 0,-3.94489 3.19797,-7.14285 7.14286,-7.14285 3.94489,0 7.14286,3.19796 7.14286,7.14285 z"
       transform="matrix(0.623,0,0,0.623,66.161597,283.77333)" />
    <path
       sodipodi:type="arc"
       style="fill:#ffb380;stroke:#ffb380;stroke-width:1.14199996;stroke-miterlimit:4;stroke-opacity:0.91538457;stroke-dasharray:none;display:inline"
       id="path3176-8"
       sodipodi:cx="110"
       sodipodi:cy="497.36218"
       sodipodi:rx="7.1428571"
       sodipodi:ry="7.1428571"
       d="m 117.14286,497.36218 c 0,3.94489 -3.19797,7.14286 -7.14286,7.14286 -3.94489,0 -7.14286,-3.19797 -7.14286,-7.14286 0,-3.94489 3.19797,-7.14285 7.14286,-7.14285 3.94489,0 7.14286,3.19796 7.14286,7.14285 z"
       transform="matrix(0.623,0,0,0.623,73.386229,223.51569)" />
    <path
       sodipodi:type="arc"
       style="fill:#ffb380;stroke:#ffb380;stroke-width:1.14199996;stroke-miterlimit:4;stroke-opacity:0.91538457;stroke-dasharray:none;display:inline"
       id="path3176-9-7"
       sodipodi:cx="110"
       sodipodi:cy="497.36218"
       sodipodi:rx="7.1428571"
       sodipodi:ry="7.1428571"
       d="m 117.14286,497.36218 c 0,3.94489 -3.19797,7.14286 -7.14286,7.14286 -3.94489,0 -7.14286,-3.19797 -7.14286,-7.14286 0,-3.94489 3.19797,-7.14285 7.14286,-7.14285 3.94489,0 7.14286,3.19796 7.14286,7.14285 z"
       transform="matrix(0.623,0,0,0.623,93.435719,197.09816)" />
    <path
       sodipodi:type="arc"
       style="fill:#ffb380;stroke:#ffb380;stroke-width:1.14199996;stroke-miterlimit:4;stroke-opacity:0.91538457;stroke-dasharray:none;display:inline"
       id="path3176-8-5"
       sodipodi:cx="110"
       sodipodi:cy="497.36218"
       sodipodi:rx="7.1428571"
       sodipodi:ry="7.1428571"
       d="m 117.14286,497.36218 c 0,3.94489 -3.19797,7.14286 -7.14286,7.14286 -3.94489,0 -7.14286,-3.19797 -7.14286,-7.14286 0,-3.94489 3.19797,-7.14285 7.14286,-7.14285 3.94489,0 7.14286,3.19796 7.14286,7.14285 z"
       transform="matrix(0.623,0,0,0.623,93.336751,270.4332)" />
    <path
       style="fill:none;stroke:#b3b3b3;stroke-width:1px;stroke-linecap:butt;stroke-linejoin:miter;stroke-opacity:1"
       d="M 52.527932,33.492908 C 78.345746,32.228407 77.360097,134.65241 54.548237,157.74167"
       id="path6153"
       inkscape:connector-curvature="0"
       transform="translate(63.512131,452.18361)"
       sodipodi:nodetypes="cc" />
    <text
       xml:space="preserve"
       style="font-size:10px;font-style:normal;font-weight:normal;line-height:125%;letter-spacing:0px;word-spacing:0px;fill:#b3b3b3;fill-opacity:1;stroke:none;display:inline;font-family:Sans"
       x="516.22693"
       y="-116.35265"
       id="text6178"
       sodipodi:linespacing="125%"
       transform="matrix(0,1,-1,0,0,0)"><tspan
         sodipodi:role="line"
         id="tspan6180"
         x="516.22693"
         y="-116.35265">Obstacle</tspan></text>
    <path
       style="fill:none;stroke:#ffb380;stroke-width:1px;stroke-linecap:butt;stroke-linejoin:miter;stroke-opacity:1"
       d="M 96.326688,125.22737 69.151534,138.5675 76.376166,78.30986 70.062712,38.5624 96.425656,51.89233 76.376166,78.30986 z"
       id="path3986"
       inkscape:connector-curvature="0"
       transform="translate(65.540063,455.06247)" />
    <path
       style="fill:none;stroke:#ffb380;stroke-width:1px;stroke-linecap:butt;stroke-linejoin:miter;stroke-opacity:1"
       d="m 96.425656,51.89233 -0.09897,73.33504"
       id="path3988"
       inkscape:connector-curvature="0"
       transform="translate(65.540063,455.06247)" />
    <path
       style="fill:#000000;stroke:#808080;stroke-width:1px;stroke-linecap:butt;stroke-linejoin:miter;stroke-opacity:1"
       d="m 70.205601,60.155932 5.808377,-1.515229"
       id="path4488"
       inkscape:connector-curvature="0"
       transform="translate(65.540063,455.06247)" />
    <path
       style="fill:#000000;stroke:#808080;stroke-width:1px;stroke-linecap:butt;stroke-linejoin:miter;stroke-opacity:1;display:inline"
       d="m 135.29189,563.34117 5.95831,0.72911"
       id="path4488-3"
       inkscape:connector-curvature="0" />
    <path
       style="fill:#000000;stroke:#808080;stroke-width:1px;stroke-linecap:butt;stroke-linejoin:miter;stroke-opacity:1;display:inline"
       d="m 147.7734,584.00949 2.71357,5.35441"
       id="path4488-2"
       inkscape:connector-curvature="0" />
    <path
       style="fill:#000000;stroke:#808080;stroke-width:1px;stroke-linecap:butt;stroke-linejoin:miter;stroke-opacity:1;display:inline"
       d="m 147.17055,503.19655 2.90912,-5.25073"
       id="path4488-0"
       inkscape:connector-curvature="0" />
    <path
       style="fill:#000000;stroke:#808080;stroke-width:1px;stroke-linecap:butt;stroke-linejoin:miter;stroke-opacity:1;display:inline"
       d="m 149.94343,518.64303 5.18513,3.0245"
       id="path4488-7"
       inkscape:connector-curvature="0"
       inkscape:transform-center-y="0.89119"
       inkscape:transform-center-x="0.887345" />
    <path
       style="fill:#000000;stroke:#808080;stroke-width:1px;stroke-linecap:butt;stroke-linejoin:miter;stroke-opacity:1;display:inline"
       d="m 148.97229,558.73702 5.36656,-2.68949"
       id="path4488-00"
       inkscape:connector-curvature="0" />
    <path
       style="fill:#000000;stroke:#808080;stroke-width:1.00497246px;stroke-linecap:butt;stroke-linejoin:miter;stroke-opacity:1;display:inline"
       d="m 155.88688,543.62482 12.0587,-0.005"
       id="path4488-8"
       inkscape:connector-curvature="0"
       inkscape:transform-center-y="0.25390261" />
  </g>
</svg>
